%TF.GenerationSoftware,KiCad,Pcbnew,7.0.5-0*%
%TF.CreationDate,2024-06-02T16:21:38-07:00*%
%TF.ProjectId,PE42424A,50453432-3432-4344-912e-6b696361645f,rev?*%
%TF.SameCoordinates,Original*%
%TF.FileFunction,Copper,L1,Top*%
%TF.FilePolarity,Positive*%
%FSLAX46Y46*%
G04 Gerber Fmt 4.6, Leading zero omitted, Abs format (unit mm)*
G04 Created by KiCad (PCBNEW 7.0.5-0) date 2024-06-02 16:21:38*
%MOMM*%
%LPD*%
G01*
G04 APERTURE LIST*
G04 Aperture macros list*
%AMRoundRect*
0 Rectangle with rounded corners*
0 $1 Rounding radius*
0 $2 $3 $4 $5 $6 $7 $8 $9 X,Y pos of 4 corners*
0 Add a 4 corners polygon primitive as box body*
4,1,4,$2,$3,$4,$5,$6,$7,$8,$9,$2,$3,0*
0 Add four circle primitives for the rounded corners*
1,1,$1+$1,$2,$3*
1,1,$1+$1,$4,$5*
1,1,$1+$1,$6,$7*
1,1,$1+$1,$8,$9*
0 Add four rect primitives between the rounded corners*
20,1,$1+$1,$2,$3,$4,$5,0*
20,1,$1+$1,$4,$5,$6,$7,0*
20,1,$1+$1,$6,$7,$8,$9,0*
20,1,$1+$1,$8,$9,$2,$3,0*%
G04 Aperture macros list end*
%TA.AperFunction,NonConductor*%
%ADD10C,0.200000*%
%TD*%
%ADD11C,0.300000*%
%TA.AperFunction,NonConductor*%
%ADD12C,0.300000*%
%TD*%
%TA.AperFunction,SMDPad,CuDef*%
%ADD13R,0.279400X0.355600*%
%TD*%
%TA.AperFunction,SMDPad,CuDef*%
%ADD14R,0.812800X1.397000*%
%TD*%
%TA.AperFunction,SMDPad,CuDef*%
%ADD15RoundRect,0.100000X-0.130000X-0.100000X0.130000X-0.100000X0.130000X0.100000X-0.130000X0.100000X0*%
%TD*%
%TA.AperFunction,ComponentPad*%
%ADD16R,1.700000X1.700000*%
%TD*%
%TA.AperFunction,ComponentPad*%
%ADD17O,1.700000X1.700000*%
%TD*%
%TA.AperFunction,Conductor*%
%ADD18C,0.000000*%
%TD*%
%TA.AperFunction,Conductor*%
%ADD19C,0.200000*%
%TD*%
G04 APERTURE END LIST*
D10*
X106400000Y-75300000D02*
X106700000Y-75300000D01*
X104300000Y-70100000D02*
X110800000Y-70100000D01*
X104600000Y-78900000D02*
X104600000Y-80600000D01*
X105400000Y-75800000D02*
X105400000Y-79100000D01*
X105400000Y-78200000D02*
X104600000Y-78900000D01*
X105400000Y-75300000D02*
X104000000Y-75300000D01*
X104300000Y-72300000D02*
X104300000Y-70100000D01*
X106800000Y-74800000D02*
X110900000Y-72900000D01*
X104600000Y-80600000D02*
X110900000Y-80600000D01*
X105400000Y-73500000D02*
X104300000Y-72300000D01*
X106300000Y-72700000D02*
X106100000Y-74900000D01*
X106800000Y-75800000D02*
X110800000Y-77700000D01*
X104000000Y-75300000D02*
X104000000Y-83200000D01*
X106100000Y-79000000D02*
X106100000Y-75900000D01*
X104000000Y-83200000D02*
X111000000Y-83200000D01*
D11*
D12*
X115011653Y-73300828D02*
X114511653Y-72586542D01*
X114154510Y-73300828D02*
X114154510Y-71800828D01*
X114154510Y-71800828D02*
X114725939Y-71800828D01*
X114725939Y-71800828D02*
X114868796Y-71872257D01*
X114868796Y-71872257D02*
X114940225Y-71943685D01*
X114940225Y-71943685D02*
X115011653Y-72086542D01*
X115011653Y-72086542D02*
X115011653Y-72300828D01*
X115011653Y-72300828D02*
X114940225Y-72443685D01*
X114940225Y-72443685D02*
X114868796Y-72515114D01*
X114868796Y-72515114D02*
X114725939Y-72586542D01*
X114725939Y-72586542D02*
X114154510Y-72586542D01*
X116154510Y-72515114D02*
X115654510Y-72515114D01*
X115654510Y-73300828D02*
X115654510Y-71800828D01*
X115654510Y-71800828D02*
X116368796Y-71800828D01*
X117725939Y-73300828D02*
X116868796Y-73300828D01*
X117297367Y-73300828D02*
X117297367Y-71800828D01*
X117297367Y-71800828D02*
X117154510Y-72015114D01*
X117154510Y-72015114D02*
X117011653Y-72157971D01*
X117011653Y-72157971D02*
X116868796Y-72229400D01*
D11*
D12*
X114040225Y-79500828D02*
X114540225Y-81000828D01*
X114540225Y-81000828D02*
X115040225Y-79500828D01*
X115540224Y-81000828D02*
X115540224Y-79500828D01*
X115540224Y-79500828D02*
X115897367Y-79500828D01*
X115897367Y-79500828D02*
X116111653Y-79572257D01*
X116111653Y-79572257D02*
X116254510Y-79715114D01*
X116254510Y-79715114D02*
X116325939Y-79857971D01*
X116325939Y-79857971D02*
X116397367Y-80143685D01*
X116397367Y-80143685D02*
X116397367Y-80357971D01*
X116397367Y-80357971D02*
X116325939Y-80643685D01*
X116325939Y-80643685D02*
X116254510Y-80786542D01*
X116254510Y-80786542D02*
X116111653Y-80929400D01*
X116111653Y-80929400D02*
X115897367Y-81000828D01*
X115897367Y-81000828D02*
X115540224Y-81000828D01*
X117040224Y-81000828D02*
X117040224Y-79500828D01*
X117040224Y-79500828D02*
X117397367Y-79500828D01*
X117397367Y-79500828D02*
X117611653Y-79572257D01*
X117611653Y-79572257D02*
X117754510Y-79715114D01*
X117754510Y-79715114D02*
X117825939Y-79857971D01*
X117825939Y-79857971D02*
X117897367Y-80143685D01*
X117897367Y-80143685D02*
X117897367Y-80357971D01*
X117897367Y-80357971D02*
X117825939Y-80643685D01*
X117825939Y-80643685D02*
X117754510Y-80786542D01*
X117754510Y-80786542D02*
X117611653Y-80929400D01*
X117611653Y-80929400D02*
X117397367Y-81000828D01*
X117397367Y-81000828D02*
X117040224Y-81000828D01*
D11*
D12*
X114940225Y-74572257D02*
X114797368Y-74500828D01*
X114797368Y-74500828D02*
X114583082Y-74500828D01*
X114583082Y-74500828D02*
X114368796Y-74572257D01*
X114368796Y-74572257D02*
X114225939Y-74715114D01*
X114225939Y-74715114D02*
X114154510Y-74857971D01*
X114154510Y-74857971D02*
X114083082Y-75143685D01*
X114083082Y-75143685D02*
X114083082Y-75357971D01*
X114083082Y-75357971D02*
X114154510Y-75643685D01*
X114154510Y-75643685D02*
X114225939Y-75786542D01*
X114225939Y-75786542D02*
X114368796Y-75929400D01*
X114368796Y-75929400D02*
X114583082Y-76000828D01*
X114583082Y-76000828D02*
X114725939Y-76000828D01*
X114725939Y-76000828D02*
X114940225Y-75929400D01*
X114940225Y-75929400D02*
X115011653Y-75857971D01*
X115011653Y-75857971D02*
X115011653Y-75357971D01*
X115011653Y-75357971D02*
X114725939Y-75357971D01*
X115654510Y-76000828D02*
X115654510Y-74500828D01*
X115654510Y-74500828D02*
X116511653Y-76000828D01*
X116511653Y-76000828D02*
X116511653Y-74500828D01*
X117225939Y-76000828D02*
X117225939Y-74500828D01*
X117225939Y-74500828D02*
X117583082Y-74500828D01*
X117583082Y-74500828D02*
X117797368Y-74572257D01*
X117797368Y-74572257D02*
X117940225Y-74715114D01*
X117940225Y-74715114D02*
X118011654Y-74857971D01*
X118011654Y-74857971D02*
X118083082Y-75143685D01*
X118083082Y-75143685D02*
X118083082Y-75357971D01*
X118083082Y-75357971D02*
X118011654Y-75643685D01*
X118011654Y-75643685D02*
X117940225Y-75786542D01*
X117940225Y-75786542D02*
X117797368Y-75929400D01*
X117797368Y-75929400D02*
X117583082Y-76000828D01*
X117583082Y-76000828D02*
X117225939Y-76000828D01*
D11*
D12*
X115011653Y-83600828D02*
X114511653Y-82886542D01*
X114154510Y-83600828D02*
X114154510Y-82100828D01*
X114154510Y-82100828D02*
X114725939Y-82100828D01*
X114725939Y-82100828D02*
X114868796Y-82172257D01*
X114868796Y-82172257D02*
X114940225Y-82243685D01*
X114940225Y-82243685D02*
X115011653Y-82386542D01*
X115011653Y-82386542D02*
X115011653Y-82600828D01*
X115011653Y-82600828D02*
X114940225Y-82743685D01*
X114940225Y-82743685D02*
X114868796Y-82815114D01*
X114868796Y-82815114D02*
X114725939Y-82886542D01*
X114725939Y-82886542D02*
X114154510Y-82886542D01*
X116154510Y-82815114D02*
X115654510Y-82815114D01*
X115654510Y-83600828D02*
X115654510Y-82100828D01*
X115654510Y-82100828D02*
X116368796Y-82100828D01*
X117797367Y-83457971D02*
X117725939Y-83529400D01*
X117725939Y-83529400D02*
X117511653Y-83600828D01*
X117511653Y-83600828D02*
X117368796Y-83600828D01*
X117368796Y-83600828D02*
X117154510Y-83529400D01*
X117154510Y-83529400D02*
X117011653Y-83386542D01*
X117011653Y-83386542D02*
X116940224Y-83243685D01*
X116940224Y-83243685D02*
X116868796Y-82957971D01*
X116868796Y-82957971D02*
X116868796Y-82743685D01*
X116868796Y-82743685D02*
X116940224Y-82457971D01*
X116940224Y-82457971D02*
X117011653Y-82315114D01*
X117011653Y-82315114D02*
X117154510Y-82172257D01*
X117154510Y-82172257D02*
X117368796Y-82100828D01*
X117368796Y-82100828D02*
X117511653Y-82100828D01*
X117511653Y-82100828D02*
X117725939Y-82172257D01*
X117725939Y-82172257D02*
X117797367Y-82243685D01*
D11*
D12*
X115011653Y-78500828D02*
X114511653Y-77786542D01*
X114154510Y-78500828D02*
X114154510Y-77000828D01*
X114154510Y-77000828D02*
X114725939Y-77000828D01*
X114725939Y-77000828D02*
X114868796Y-77072257D01*
X114868796Y-77072257D02*
X114940225Y-77143685D01*
X114940225Y-77143685D02*
X115011653Y-77286542D01*
X115011653Y-77286542D02*
X115011653Y-77500828D01*
X115011653Y-77500828D02*
X114940225Y-77643685D01*
X114940225Y-77643685D02*
X114868796Y-77715114D01*
X114868796Y-77715114D02*
X114725939Y-77786542D01*
X114725939Y-77786542D02*
X114154510Y-77786542D01*
X116154510Y-77715114D02*
X115654510Y-77715114D01*
X115654510Y-78500828D02*
X115654510Y-77000828D01*
X115654510Y-77000828D02*
X116368796Y-77000828D01*
X116868796Y-77143685D02*
X116940224Y-77072257D01*
X116940224Y-77072257D02*
X117083082Y-77000828D01*
X117083082Y-77000828D02*
X117440224Y-77000828D01*
X117440224Y-77000828D02*
X117583082Y-77072257D01*
X117583082Y-77072257D02*
X117654510Y-77143685D01*
X117654510Y-77143685D02*
X117725939Y-77286542D01*
X117725939Y-77286542D02*
X117725939Y-77429400D01*
X117725939Y-77429400D02*
X117654510Y-77643685D01*
X117654510Y-77643685D02*
X116797367Y-78500828D01*
X116797367Y-78500828D02*
X117725939Y-78500828D01*
D11*
D12*
X114040225Y-69400828D02*
X114540225Y-70900828D01*
X114540225Y-70900828D02*
X115040225Y-69400828D01*
X116325939Y-70900828D02*
X115468796Y-70900828D01*
X115897367Y-70900828D02*
X115897367Y-69400828D01*
X115897367Y-69400828D02*
X115754510Y-69615114D01*
X115754510Y-69615114D02*
X115611653Y-69757971D01*
X115611653Y-69757971D02*
X115468796Y-69829400D01*
D13*
%TO.P,REF\u002A\u002A,1*%
%TO.N,N/C*%
X105439999Y-74799874D03*
%TO.P,REF\u002A\u002A,2*%
X105439999Y-75300000D03*
%TO.P,REF\u002A\u002A,3*%
X105439999Y-75800126D03*
%TO.P,REF\u002A\u002A,4*%
X106760001Y-75800126D03*
%TO.P,REF\u002A\u002A,5*%
X106760001Y-75300000D03*
%TO.P,REF\u002A\u002A,6*%
X106760001Y-74799874D03*
D14*
%TO.P,REF\u002A\u002A,7*%
X106100000Y-75300000D03*
%TD*%
D15*
%TO.P,REF\u002A\u002A,1*%
%TO.N,N/C*%
X105635000Y-72700000D03*
%TO.P,REF\u002A\u002A,2*%
X106275000Y-72700000D03*
%TD*%
D16*
%TO.P,REF\u002A\u002A,1*%
%TO.N,N/C*%
X111500000Y-70200000D03*
D17*
%TO.P,REF\u002A\u002A,2*%
X111500000Y-72740000D03*
%TO.P,REF\u002A\u002A,3*%
X111500000Y-75280000D03*
%TO.P,REF\u002A\u002A,4*%
X111500000Y-77820000D03*
%TO.P,REF\u002A\u002A,5*%
X111500000Y-80360000D03*
%TO.P,REF\u002A\u002A,6*%
X111500000Y-82900000D03*
%TD*%
D15*
%TO.P,REF\u002A\u002A,1*%
%TO.N,N/C*%
X105435000Y-79100000D03*
%TO.P,REF\u002A\u002A,2*%
X106075000Y-79100000D03*
%TD*%
D18*
%TO.N,*%
X111480000Y-75300000D02*
X111500000Y-75280000D01*
D19*
X105439999Y-72860001D02*
X105600000Y-72700000D01*
X106760001Y-75300000D02*
X111480000Y-75300000D01*
X105439999Y-74799874D02*
X105439999Y-72860001D01*
%TD*%
M02*
