%TF.GenerationSoftware,KiCad,Pcbnew,7.0.5-0*%
%TF.CreationDate,2024-09-26T11:35:51-07:00*%
%TF.ProjectId,CSD17585F5T,43534431-3735-4383-9546-35542e6b6963,rev?*%
%TF.SameCoordinates,Original*%
%TF.FileFunction,Legend,Top*%
%TF.FilePolarity,Positive*%
%FSLAX46Y46*%
G04 Gerber Fmt 4.6, Leading zero omitted, Abs format (unit mm)*
G04 Created by KiCad (PCBNEW 7.0.5-0) date 2024-09-26 11:35:51*
%MOMM*%
%LPD*%
G01*
G04 APERTURE LIST*
%ADD10C,0.150000*%
%ADD11C,0.100000*%
%ADD12C,0.120000*%
G04 APERTURE END LIST*
D10*
%TO.C,REF\u002A\u002A*%
X109766666Y-96684819D02*
X109433333Y-96208628D01*
X109195238Y-96684819D02*
X109195238Y-95684819D01*
X109195238Y-95684819D02*
X109576190Y-95684819D01*
X109576190Y-95684819D02*
X109671428Y-95732438D01*
X109671428Y-95732438D02*
X109719047Y-95780057D01*
X109719047Y-95780057D02*
X109766666Y-95875295D01*
X109766666Y-95875295D02*
X109766666Y-96018152D01*
X109766666Y-96018152D02*
X109719047Y-96113390D01*
X109719047Y-96113390D02*
X109671428Y-96161009D01*
X109671428Y-96161009D02*
X109576190Y-96208628D01*
X109576190Y-96208628D02*
X109195238Y-96208628D01*
X110195238Y-96161009D02*
X110528571Y-96161009D01*
X110671428Y-96684819D02*
X110195238Y-96684819D01*
X110195238Y-96684819D02*
X110195238Y-95684819D01*
X110195238Y-95684819D02*
X110671428Y-95684819D01*
X111433333Y-96161009D02*
X111100000Y-96161009D01*
X111100000Y-96684819D02*
X111100000Y-95684819D01*
X111100000Y-95684819D02*
X111576190Y-95684819D01*
X112100000Y-95684819D02*
X112100000Y-95922914D01*
X111861905Y-95827676D02*
X112100000Y-95922914D01*
X112100000Y-95922914D02*
X112338095Y-95827676D01*
X111957143Y-96113390D02*
X112100000Y-95922914D01*
X112100000Y-95922914D02*
X112242857Y-96113390D01*
X112861905Y-95684819D02*
X112861905Y-95922914D01*
X112623810Y-95827676D02*
X112861905Y-95922914D01*
X112861905Y-95922914D02*
X113100000Y-95827676D01*
X112719048Y-96113390D02*
X112861905Y-95922914D01*
X112861905Y-95922914D02*
X113004762Y-96113390D01*
X106266666Y-95524819D02*
X105933333Y-95048628D01*
X105695238Y-95524819D02*
X105695238Y-94524819D01*
X105695238Y-94524819D02*
X106076190Y-94524819D01*
X106076190Y-94524819D02*
X106171428Y-94572438D01*
X106171428Y-94572438D02*
X106219047Y-94620057D01*
X106219047Y-94620057D02*
X106266666Y-94715295D01*
X106266666Y-94715295D02*
X106266666Y-94858152D01*
X106266666Y-94858152D02*
X106219047Y-94953390D01*
X106219047Y-94953390D02*
X106171428Y-95001009D01*
X106171428Y-95001009D02*
X106076190Y-95048628D01*
X106076190Y-95048628D02*
X105695238Y-95048628D01*
X106695238Y-95001009D02*
X107028571Y-95001009D01*
X107171428Y-95524819D02*
X106695238Y-95524819D01*
X106695238Y-95524819D02*
X106695238Y-94524819D01*
X106695238Y-94524819D02*
X107171428Y-94524819D01*
X107933333Y-95001009D02*
X107600000Y-95001009D01*
X107600000Y-95524819D02*
X107600000Y-94524819D01*
X107600000Y-94524819D02*
X108076190Y-94524819D01*
X108600000Y-94524819D02*
X108600000Y-94762914D01*
X108361905Y-94667676D02*
X108600000Y-94762914D01*
X108600000Y-94762914D02*
X108838095Y-94667676D01*
X108457143Y-94953390D02*
X108600000Y-94762914D01*
X108600000Y-94762914D02*
X108742857Y-94953390D01*
X109361905Y-94524819D02*
X109361905Y-94762914D01*
X109123810Y-94667676D02*
X109361905Y-94762914D01*
X109361905Y-94762914D02*
X109600000Y-94667676D01*
X109219048Y-94953390D02*
X109361905Y-94762914D01*
X109361905Y-94762914D02*
X109504762Y-94953390D01*
X110574666Y-100354819D02*
X110241333Y-99878628D01*
X110003238Y-100354819D02*
X110003238Y-99354819D01*
X110003238Y-99354819D02*
X110384190Y-99354819D01*
X110384190Y-99354819D02*
X110479428Y-99402438D01*
X110479428Y-99402438D02*
X110527047Y-99450057D01*
X110527047Y-99450057D02*
X110574666Y-99545295D01*
X110574666Y-99545295D02*
X110574666Y-99688152D01*
X110574666Y-99688152D02*
X110527047Y-99783390D01*
X110527047Y-99783390D02*
X110479428Y-99831009D01*
X110479428Y-99831009D02*
X110384190Y-99878628D01*
X110384190Y-99878628D02*
X110003238Y-99878628D01*
X111003238Y-99831009D02*
X111336571Y-99831009D01*
X111479428Y-100354819D02*
X111003238Y-100354819D01*
X111003238Y-100354819D02*
X111003238Y-99354819D01*
X111003238Y-99354819D02*
X111479428Y-99354819D01*
X112241333Y-99831009D02*
X111908000Y-99831009D01*
X111908000Y-100354819D02*
X111908000Y-99354819D01*
X111908000Y-99354819D02*
X112384190Y-99354819D01*
X112908000Y-99354819D02*
X112908000Y-99592914D01*
X112669905Y-99497676D02*
X112908000Y-99592914D01*
X112908000Y-99592914D02*
X113146095Y-99497676D01*
X112765143Y-99783390D02*
X112908000Y-99592914D01*
X112908000Y-99592914D02*
X113050857Y-99783390D01*
X113669905Y-99354819D02*
X113669905Y-99592914D01*
X113431810Y-99497676D02*
X113669905Y-99592914D01*
X113669905Y-99592914D02*
X113908000Y-99497676D01*
X113527048Y-99783390D02*
X113669905Y-99592914D01*
X113669905Y-99592914D02*
X113812762Y-99783390D01*
D11*
X110060000Y-97400000D02*
G75*
G03*
X110060000Y-97400000I-50000J0D01*
G01*
D12*
X106270000Y-103810000D02*
X108930000Y-103810000D01*
X106270000Y-98670000D02*
X106270000Y-103810000D01*
X106270000Y-97400000D02*
X106270000Y-96070000D01*
X108930000Y-98670000D02*
X108930000Y-103810000D01*
X106270000Y-96070000D02*
X107600000Y-96070000D01*
X106270000Y-98670000D02*
X108930000Y-98670000D01*
%TD*%
M02*
