%TF.GenerationSoftware,KiCad,Pcbnew,7.0.5-0*%
%TF.CreationDate,2024-09-26T11:35:50-07:00*%
%TF.ProjectId,CSD17585F5T,43534431-3735-4383-9546-35542e6b6963,rev?*%
%TF.SameCoordinates,Original*%
%TF.FileFunction,Copper,L1,Top*%
%TF.FilePolarity,Positive*%
%FSLAX46Y46*%
G04 Gerber Fmt 4.6, Leading zero omitted, Abs format (unit mm)*
G04 Created by KiCad (PCBNEW 7.0.5-0) date 2024-09-26 11:35:50*
%MOMM*%
%LPD*%
G01*
G04 APERTURE LIST*
G04 Aperture macros list*
%AMRoundRect*
0 Rectangle with rounded corners*
0 $1 Rounding radius*
0 $2 $3 $4 $5 $6 $7 $8 $9 X,Y pos of 4 corners*
0 Add a 4 corners polygon primitive as box body*
4,1,4,$2,$3,$4,$5,$6,$7,$8,$9,$2,$3,0*
0 Add four circle primitives for the rounded corners*
1,1,$1+$1,$2,$3*
1,1,$1+$1,$4,$5*
1,1,$1+$1,$6,$7*
1,1,$1+$1,$8,$9*
0 Add four rect primitives between the rounded corners*
20,1,$1+$1,$2,$3,$4,$5,0*
20,1,$1+$1,$4,$5,$6,$7,0*
20,1,$1+$1,$6,$7,$8,$9,0*
20,1,$1+$1,$8,$9,$2,$3,0*%
G04 Aperture macros list end*
%TA.AperFunction,NonConductor*%
%ADD10C,0.100000*%
%TD*%
%ADD11C,0.300000*%
%TA.AperFunction,NonConductor*%
%ADD12C,0.300000*%
%TD*%
%TA.AperFunction,NonConductor*%
%ADD13C,0.250000*%
%TD*%
%TA.AperFunction,SMDPad,CuDef*%
%ADD14RoundRect,0.147500X-0.147500X-0.172500X0.147500X-0.172500X0.147500X0.172500X-0.147500X0.172500X0*%
%TD*%
%TA.AperFunction,ComponentPad*%
%ADD15R,1.700000X1.700000*%
%TD*%
%TA.AperFunction,ComponentPad*%
%ADD16O,1.700000X1.700000*%
%TD*%
%TA.AperFunction,SMDPad,CuDef*%
%ADD17R,0.152400X0.406400*%
%TD*%
G04 APERTURE END LIST*
D10*
X110600000Y-100700000D02*
X110900000Y-100700000D01*
X110600000Y-100400000D02*
X110600000Y-100700000D01*
D11*
D12*
X101883082Y-103329400D02*
X102097368Y-103400828D01*
X102097368Y-103400828D02*
X102454510Y-103400828D01*
X102454510Y-103400828D02*
X102597368Y-103329400D01*
X102597368Y-103329400D02*
X102668796Y-103257971D01*
X102668796Y-103257971D02*
X102740225Y-103115114D01*
X102740225Y-103115114D02*
X102740225Y-102972257D01*
X102740225Y-102972257D02*
X102668796Y-102829400D01*
X102668796Y-102829400D02*
X102597368Y-102757971D01*
X102597368Y-102757971D02*
X102454510Y-102686542D01*
X102454510Y-102686542D02*
X102168796Y-102615114D01*
X102168796Y-102615114D02*
X102025939Y-102543685D01*
X102025939Y-102543685D02*
X101954510Y-102472257D01*
X101954510Y-102472257D02*
X101883082Y-102329400D01*
X101883082Y-102329400D02*
X101883082Y-102186542D01*
X101883082Y-102186542D02*
X101954510Y-102043685D01*
X101954510Y-102043685D02*
X102025939Y-101972257D01*
X102025939Y-101972257D02*
X102168796Y-101900828D01*
X102168796Y-101900828D02*
X102525939Y-101900828D01*
X102525939Y-101900828D02*
X102740225Y-101972257D01*
X103240224Y-101900828D02*
X103597367Y-103400828D01*
X103597367Y-103400828D02*
X103883081Y-102329400D01*
X103883081Y-102329400D02*
X104168796Y-103400828D01*
X104168796Y-103400828D02*
X104525939Y-101900828D01*
D11*
D12*
X101940225Y-99372257D02*
X101797368Y-99300828D01*
X101797368Y-99300828D02*
X101583082Y-99300828D01*
X101583082Y-99300828D02*
X101368796Y-99372257D01*
X101368796Y-99372257D02*
X101225939Y-99515114D01*
X101225939Y-99515114D02*
X101154510Y-99657971D01*
X101154510Y-99657971D02*
X101083082Y-99943685D01*
X101083082Y-99943685D02*
X101083082Y-100157971D01*
X101083082Y-100157971D02*
X101154510Y-100443685D01*
X101154510Y-100443685D02*
X101225939Y-100586542D01*
X101225939Y-100586542D02*
X101368796Y-100729400D01*
X101368796Y-100729400D02*
X101583082Y-100800828D01*
X101583082Y-100800828D02*
X101725939Y-100800828D01*
X101725939Y-100800828D02*
X101940225Y-100729400D01*
X101940225Y-100729400D02*
X102011653Y-100657971D01*
X102011653Y-100657971D02*
X102011653Y-100157971D01*
X102011653Y-100157971D02*
X101725939Y-100157971D01*
X102654510Y-100800828D02*
X102654510Y-99300828D01*
X102654510Y-99300828D02*
X103511653Y-100800828D01*
X103511653Y-100800828D02*
X103511653Y-99300828D01*
X104225939Y-100800828D02*
X104225939Y-99300828D01*
X104225939Y-99300828D02*
X104583082Y-99300828D01*
X104583082Y-99300828D02*
X104797368Y-99372257D01*
X104797368Y-99372257D02*
X104940225Y-99515114D01*
X104940225Y-99515114D02*
X105011654Y-99657971D01*
X105011654Y-99657971D02*
X105083082Y-99943685D01*
X105083082Y-99943685D02*
X105083082Y-100157971D01*
X105083082Y-100157971D02*
X105011654Y-100443685D01*
X105011654Y-100443685D02*
X104940225Y-100586542D01*
X104940225Y-100586542D02*
X104797368Y-100729400D01*
X104797368Y-100729400D02*
X104583082Y-100800828D01*
X104583082Y-100800828D02*
X104225939Y-100800828D01*
D11*
D12*
X101154510Y-98100828D02*
X101154510Y-96600828D01*
X101154510Y-96600828D02*
X101725939Y-96600828D01*
X101725939Y-96600828D02*
X101868796Y-96672257D01*
X101868796Y-96672257D02*
X101940225Y-96743685D01*
X101940225Y-96743685D02*
X102011653Y-96886542D01*
X102011653Y-96886542D02*
X102011653Y-97100828D01*
X102011653Y-97100828D02*
X101940225Y-97243685D01*
X101940225Y-97243685D02*
X101868796Y-97315114D01*
X101868796Y-97315114D02*
X101725939Y-97386542D01*
X101725939Y-97386542D02*
X101154510Y-97386542D01*
X102511653Y-96600828D02*
X102868796Y-98100828D01*
X102868796Y-98100828D02*
X103154510Y-97029400D01*
X103154510Y-97029400D02*
X103440225Y-98100828D01*
X103440225Y-98100828D02*
X103797368Y-96600828D01*
X105225939Y-98100828D02*
X104725939Y-97386542D01*
X104368796Y-98100828D02*
X104368796Y-96600828D01*
X104368796Y-96600828D02*
X104940225Y-96600828D01*
X104940225Y-96600828D02*
X105083082Y-96672257D01*
X105083082Y-96672257D02*
X105154511Y-96743685D01*
X105154511Y-96743685D02*
X105225939Y-96886542D01*
X105225939Y-96886542D02*
X105225939Y-97100828D01*
X105225939Y-97100828D02*
X105154511Y-97243685D01*
X105154511Y-97243685D02*
X105083082Y-97315114D01*
X105083082Y-97315114D02*
X104940225Y-97386542D01*
X104940225Y-97386542D02*
X104368796Y-97386542D01*
D13*
X114700000Y-99900000D02*
X114700000Y-97600000D01*
X112500000Y-99900000D02*
X114700000Y-99900000D01*
X111800000Y-97400000D02*
X112800000Y-97400000D01*
X114400000Y-97200000D02*
X114900000Y-97200000D01*
X114900000Y-97700000D01*
X114400000Y-97700000D01*
X114400000Y-97200000D01*
%TA.AperFunction,NonConductor*%
G36*
X114400000Y-97200000D02*
G01*
X114900000Y-97200000D01*
X114900000Y-97700000D01*
X114400000Y-97700000D01*
X114400000Y-97200000D01*
G37*
%TD.AperFunction*%
X112950000Y-97200000D02*
X113450000Y-97200000D01*
X113450000Y-97700000D01*
X112950000Y-97700000D01*
X112950000Y-97200000D01*
%TA.AperFunction,NonConductor*%
G36*
X112950000Y-97200000D02*
G01*
X113450000Y-97200000D01*
X113450000Y-97700000D01*
X112950000Y-97700000D01*
X112950000Y-97200000D01*
G37*
%TD.AperFunction*%
X108400000Y-97400000D02*
X110300000Y-97400000D01*
X111900000Y-102600000D02*
X108300000Y-102600000D01*
X111908000Y-99900000D02*
X111900000Y-102600000D01*
X108300000Y-99900000D02*
X111300000Y-99900000D01*
D14*
%TO.P,REF\u002A\u002A,1*%
%TO.N,N/C*%
X110615000Y-97400000D03*
%TO.P,REF\u002A\u002A,2*%
X111585000Y-97400000D03*
%TD*%
D15*
%TO.P,REF\u002A\u002A,1*%
%TO.N,N/C*%
X107600000Y-97400000D03*
D16*
%TO.P,REF\u002A\u002A,2*%
X107600000Y-99940000D03*
%TO.P,REF\u002A\u002A,3*%
X107600000Y-102480000D03*
%TD*%
D17*
%TO.P,REF\u002A\u002A,1*%
%TO.N,N/C*%
X111400000Y-99900000D03*
%TO.P,REF\u002A\u002A,2*%
X111908000Y-99900000D03*
%TO.P,REF\u002A\u002A,3*%
X112416000Y-99900000D03*
%TD*%
M02*
